<?xml version="1.0" standalone="no"?>
<!DOCTYPE svg PUBLIC "-//W3C//DTD SVG 20010904//EN"
"http://www.w3.org/TR/2001/REC-SVG-20010904/DTD/svg10.dtd">
<svg version="1.0" xmlns="http://www.w3.org/2000/svg"
width="70.000000pt" height="70.000000pt" viewBox="0 0 70.000000 70.000000"
preserveAspectRatio="xMidYMid meet">

<g transform="translate(0.000000,70.000000) scale(0.100000,-0.100000)"
fill="#de0000" stroke="none">
<path d="M260 571 l0 -58 -50 -7 c-31 -4 -60 -16 -79 -32 -33 -28 -56 -92 -47
-130 6 -21 3 -24 -24 -24 -16 0 -30 -4 -30 -10 0 -5 15 -10 34 -10 25 0 36 -5
41 -19 11 -36 187 -174 241 -189 33 -9 254 164 254 198 0 6 16 10 35 10 19 0
35 5 35 10 0 6 -12 10 -28 10 -26 0 -27 2 -24 43 7 82 -71 153 -155 143 l-43
-6 0 36 c0 21 -4 33 -10 29 -5 -3 -10 -19 -10 -34 0 -15 -10 -41 -23 -58 l-23
-31 -26 23 c-20 17 -28 38 -38 94 -6 39 -16 71 -21 71 -5 0 -9 -26 -9 -59z
m-12 -163 l-3 -83 -72 -3 -73 -3 0 41 c0 77 47 129 118 130 l33 0 -3 -82z
m324 43 c23 -25 28 -41 28 -81 l0 -50 -59 0 c-51 0 -62 -3 -79 -25 -11 -13
-22 -21 -26 -18 -9 9 -8 198 2 207 4 4 29 6 56 3 40 -3 55 -11 78 -36z m-268
-78 c9 -60 19 -129 22 -155 12 -89 23 -62 59 142 8 47 16 90 16 95 3 22 17
-104 18 -162 1 -35 4 -63 9 -63 4 0 18 16 31 35 22 33 27 35 78 35 49 0 53 -2
44 -18 -15 -28 -88 -89 -163 -137 l-66 -42 -89 57 c-82 53 -143 109 -143 131
0 5 31 9 69 9 l69 0 7 90 c4 50 11 90 15 90 4 0 15 -48 24 -107z m60 56 c12
10 16 10 16 1 0 -20 -32 -191 -36 -188 -4 5 -34 181 -34 203 0 18 2 18 19 -5
16 -20 21 -22 35 -11z"/>
</g>
</svg>
