<?xml version="1.0" standalone="no"?>
<!DOCTYPE svg PUBLIC "-//W3C//DTD SVG 20010904//EN"
"http://www.w3.org/TR/2001/REC-SVG-20010904/DTD/svg10.dtd">
<svg version="1.0" xmlns="http://www.w3.org/2000/svg"
width="70.000000pt" height="70.000000pt" viewBox="0 0 70.000000 70.000000"
preserveAspectRatio="xMidYMid meet">

<g transform="translate(0.000000,70.000000) scale(0.100000,-0.100000)"
fill="#de0000" stroke="none">
<path d="M92 540 c-39 -40 -72 -79 -72 -89 0 -9 19 -35 43 -57 75 -72 281
-240 316 -258 53 -28 132 -31 222 -11 l79 18 0 34 c0 45 -34 78 -90 87 -67 11
-97 34 -157 124 -66 99 -81 109 -116 81 l-26 -20 -31 28 c-17 15 -38 50 -48
78 -10 27 -25 51 -33 53 -8 1 -47 -29 -87 -68z m103 13 c5 -27 24 -55 65 -98
32 -33 78 -81 102 -106 35 -37 57 -50 123 -72 44 -14 97 -29 118 -32 20 -4 37
-12 37 -17 0 -7 -31 -9 -89 -6 -103 6 -153 26 -225 90 -77 67 -184 232 -172
264 11 27 34 14 41 -23z m-30 -55 c63 -121 160 -223 253 -265 47 -22 71 -27
149 -27 109 -1 100 -17 -13 -24 -94 -6 -144 11 -236 82 -141 107 -149 116
-168 186 -9 36 -20 73 -24 83 -5 10 -4 17 2 17 5 0 22 -24 37 -52z m-39 -14
c8 -20 14 -45 12 -56 -3 -17 -7 -15 -42 17 -38 34 -38 36 -21 55 25 28 34 25
51 -16z m230 -266 c72 -49 143 -64 231 -48 45 7 69 8 76 1 30 -30 -200 -55
-263 -29 -32 14 -327 253 -358 291 -8 9 -11 21 -8 26 4 6 65 -38 137 -97 72
-59 155 -124 185 -144z m9 243 c6 -11 -33 -26 -43 -16 -4 3 0 10 8 15 19 12
27 12 35 1z m18 -38 c-18 -7 -16 -23 2 -23 9 0 12 -6 9 -15 -4 -10 0 -15 12
-15 16 0 17 -2 4 -10 -12 -8 -11 -10 6 -10 12 0 29 -12 39 -26 16 -26 16 -26
-7 -19 -33 10 -86 54 -110 93 l-20 32 39 -1 c21 0 32 -3 26 -6z"/>
</g>
</svg>
